<?xml version="1.0" standalone="no"?>
<!DOCTYPE svg PUBLIC "-//W3C//DTD SVG 20010904//EN"
 "http://www.w3.org/TR/2001/REC-SVG-20010904/DTD/svg10.dtd">
<svg version="1.0" xmlns="http://www.w3.org/2000/svg"
 width="1200.000000pt" height="630.000000pt" viewBox="0 0 1200.000000 630.000000"
 preserveAspectRatio="xMidYMid meet">

<g transform="translate(0.000000,630.000000) scale(0.100000,-0.100000)"
fill="#000000" stroke="none">
<path d="M0 3150 l0 -3150 6000 0 6000 0 0 3150 0 3150 -6000 0 -6000 0 0
-3150z m5669 475 c25 -8 59 -27 77 -40 41 -31 84 -119 87 -176 l2 -44 -70 0
-70 0 -6 42 c-10 79 -62 110 -177 105 -24 -2 -44 -12 -68 -36 -30 -30 -34 -40
-34 -84 0 -46 3 -53 39 -84 23 -19 82 -49 140 -71 188 -72 252 -136 259 -258
10 -165 -102 -286 -274 -297 -174 -11 -312 92 -331 247 l-6 51 70 0 70 0 7
-39 c20 -130 203 -177 295 -77 18 19 26 41 29 80 4 50 2 56 -29 90 -25 27 -60
46 -134 74 -149 57 -194 82 -230 130 -111 145 -34 352 148 398 61 16 144 11
206 -11z m2066 2 c25 -7 60 -31 92 -63 52 -51 68 -87 75 -164 l3 -35 -70 0
-70 0 -5 35 c-13 77 -59 113 -145 113 -64 0 -108 -23 -129 -67 -20 -42 -20
-69 -1 -106 19 -37 58 -60 185 -109 58 -23 125 -55 148 -72 167 -122 119 -382
-84 -459 -81 -30 -196 -25 -270 13 -87 44 -142 121 -151 213 l-6 54 72 0 c71
0 71 0 71 -28 0 -103 134 -174 244 -128 94 39 113 170 33 230 -18 12 -86 44
-152 69 -66 26 -136 60 -157 77 -50 42 -88 121 -88 184 2 196 188 308 405 243z
m-4265 -266 c91 -148 168 -267 172 -265 3 2 80 123 170 269 l163 265 83 0 82
0 0 -470 0 -470 -70 0 -70 0 -2 364 -3 365 -145 -235 -145 -234 -65 0 -66 0
-144 235 -145 234 -3 -364 -2 -365 -70 0 -70 0 0 470 0 470 83 0 82 0 165
-269z m1012 -53 c3 -317 3 -324 27 -371 69 -140 249 -172 357 -63 69 68 74
100 74 453 l0 303 70 0 70 0 0 -293 c0 -169 -5 -318 -11 -353 -34 -184 -154
-293 -335 -302 -141 -7 -250 41 -317 141 -66 96 -70 125 -75 485 l-4 322 71 0
70 0 3 -322z m1678 -148 l0 -470 -70 0 -70 0 0 470 0 470 70 0 70 0 0 -470z
m605 108 l240 -361 3 362 2 361 70 0 70 0 -2 -467 -3 -468 -75 -3 -75 -2 -240
357 -240 358 -5 -355 -5 -355 -67 -3 -68 -3 0 471 0 470 78 0 77 -1 240 -361z
m1932 -91 c100 -248 185 -460 189 -469 5 -16 -1 -18 -63 -18 l-70 0 -50 128
-51 127 -213 3 -214 2 -50 -127 -51 -128 -71 -3 -71 -3 115 283 c63 156 148
367 190 471 l75 187 77 0 76 0 182 -453z"/>
<path d="M8362 3283 c-40 -98 -72 -181 -72 -185 0 -5 68 -8 150 -8 83 0 150 2
150 4 0 8 -142 352 -149 359 -4 4 -40 -73 -79 -170z"/>
</g>
</svg>
